<svg width="32.000000" height="32.000000" viewBox="0 0 32 32" fill="none" xmlns="http://www.w3.org/2000/svg" xmlns:xlink="http://www.w3.org/1999/xlink">
	<desc>
			Created with Pixso.
	</desc>
	<defs/>
	<path id="facebook" d="M16 0C7.164 0 0 7.16406 0 16C0 24.8359 7.164 32 16 32C24.836 32 32 24.8359 32 16C32 7.16406 24.836 0 16 0ZM16 2.66699C23.3521 2.66699 29.3334 8.64844 29.3334 16C29.3334 23.3525 23.3521 29.334 16 29.334C8.64801 29.334 2.66669 23.3525 2.66669 16C2.66669 8.64844 8.64801 2.66699 16 2.66699ZM10.6667 13.333L13.3334 13.333L13.3334 11.0771C13.3334 9.05566 14.3973 8 16.7947 8L20 8L20 11.333L18.0773 11.333C17.4614 11.333 17.3334 11.585 17.3334 12.2227L17.3334 13.333L20 13.333L19.76 16L17.3334 16L17.3334 24L13.3334 24L13.3334 16L10.6667 16L10.6667 13.333Z" clip-rule="evenodd" fill="#FFFFFF" fill-opacity="1.000000" fill-rule="evenodd"/>
</svg>
