<svg width="32.000000" height="32.000000" viewBox="0 0 32 32" fill="none" xmlns="http://www.w3.org/2000/svg" xmlns:xlink="http://www.w3.org/1999/xlink">
	<desc>
			Created with Pixso.
	</desc>
	<defs/>
	<path id="instagram" d="M16 0C7.164 0 0 7.16406 0 16C0 24.8359 7.164 32 16 32C24.836 32 32 24.8359 32 16C32 7.16406 24.836 0 16 0ZM16 2.66699C23.3521 2.66699 29.3334 8.64844 29.3334 16C29.3334 23.3525 23.3521 29.334 16 29.334C8.64801 29.334 2.66669 23.3525 2.66669 16C2.66669 8.64844 8.64801 2.66699 16 2.66699ZM16 8C13.8267 8 13.556 8.00977 12.7014 8.0498C9.79468 8.18262 8.18134 9.79492 8.04797 12.7012C8.00934 13.5557 8 13.8281 8 16C8 18.1729 8.00934 18.4453 8.04797 19.2988C8.18134 22.2041 9.79468 23.8184 12.7014 23.9521C13.556 23.9902 13.8267 24 16 24C18.1733 24 18.4453 23.9902 19.3 23.9521C22.2014 23.8184 23.8214 22.207 23.952 19.2988C23.9907 18.4453 24 18.1729 24 16C24 13.8281 23.9907 13.5557 23.952 12.7012C23.8214 9.79883 22.2067 8.18164 19.3 8.0498C18.4453 8.00977 18.1733 8 16 8ZM19.2333 9.48926C18.3893 9.4502 18.136 9.44238 16 9.44238C13.864 9.44238 13.6107 9.44922 12.768 9.4873C10.5974 9.58594 9.58667 10.6143 9.48804 12.7676C9.45068 13.6104 9.44135 13.8633 9.44135 16C9.44135 18.1357 9.45068 18.3887 9.48804 19.2314C9.58801 21.3799 10.5947 22.4121 12.768 22.5117C13.6107 22.5508 13.864 22.5586 16 22.5586C18.1373 22.5586 18.3893 22.5488 19.2333 22.5117C21.404 22.4131 22.4133 21.3828 22.5134 19.2314C22.5507 18.3887 22.5587 18.1357 22.5587 16C22.5587 13.8633 22.5507 13.6113 22.5134 12.7676C22.4133 10.6152 21.4027 9.58789 19.2333 9.48926ZM19.3093 11.7305C19.3093 11.2002 19.74 10.7705 20.2693 10.7705C20.8013 10.7705 21.2307 11.2002 21.2307 11.7305C21.2307 12.2607 20.8 12.6904 20.2693 12.6904C19.7386 12.6904 19.3093 12.2598 19.3093 11.7305ZM11.892 16C11.892 13.7305 13.7321 11.8916 16 11.8916C18.268 11.8916 20.108 13.7314 20.108 16C20.108 18.2686 18.268 20.1074 16 20.1074C13.7321 20.1074 11.892 18.2686 11.892 16ZM16 18.666C14.5267 18.666 13.3333 17.4727 13.3333 16C13.3333 14.5273 14.5267 13.333 16 13.333C17.472 13.333 18.668 14.5264 18.668 16C18.668 17.4727 17.472 18.666 16 18.666Z" clip-rule="evenodd" fill="#FFFFFF" fill-opacity="1.000000" fill-rule="evenodd"/>
</svg>
