<svg width="32.000000" height="32.000000" viewBox="0 0 32 32" fill="none" xmlns="http://www.w3.org/2000/svg" xmlns:xlink="http://www.w3.org/1999/xlink">
	<desc>
			Created with Pixso.
	</desc>
	<defs/>
	<path id="twitter" d="M16 0C7.164 0 0 7.16406 0 16C0 24.8359 7.164 32 16 32C24.836 32 32 24.8359 32 16C32 7.16406 24.836 0 16 0ZM16 2.66699C23.3521 2.66699 29.3334 8.64844 29.3334 16C29.3334 23.3525 23.3521 29.334 16 29.334C8.64801 29.334 2.66669 23.3525 2.66669 16C2.66669 8.64844 8.64801 2.66699 16 2.66699ZM22.7814 12.2217C23.4454 12.1416 24.0787 11.9658 24.6667 11.7041C24.2267 12.3623 23.6707 12.9414 23.028 13.4023C23.236 18.0205 19.7933 23.168 13.6973 23.168C11.844 23.168 10.12 22.625 8.66669 21.6934C10.4094 21.8984 12.1467 21.415 13.5294 20.332C12.0947 20.3057 10.88 19.3574 10.4627 18.0537C10.9774 18.1523 11.484 18.123 11.9454 17.9971C10.3667 17.6797 9.276 16.2578 9.31201 14.7373C9.7547 14.9824 10.26 15.1309 10.7974 15.1484C9.336 14.1709 8.92133 12.2402 9.78137 10.7656C11.4 12.751 13.82 14.0576 16.5467 14.1943C16.068 12.1416 17.6254 10.1641 19.7454 10.1641C20.688 10.1641 21.5427 10.5625 22.14 11.2012C22.888 11.0547 23.5907 10.7812 24.2253 10.4053C23.9787 11.1719 23.46 11.8145 22.7814 12.2217Z" clip-rule="evenodd" fill="#FFFFFF" fill-opacity="1.000000" fill-rule="evenodd"/>
</svg>
